# xmcd CD database file
#
# Track frame offsets:
#	150
#	15675
#	39600
#	83626
#	137625
#	163352
#	181576
#	191851
#	209850
#	229726
#	253352
#	288751
#	315975
#
# Disc length: 4609 seconds
#
# Revision: 0
# Processed by: cddbd v1.5.1PL2 Copyright (c) Steve Scherf et al.
# Submitted via: CDex 1.51
#
DISCID=b911ff0d
DTITLE=Геворг Пойразян - Гитарные композиции
DYEAR=2005
DGENRE=Jazz
TTITLE0=Рад встрече
TTITLE1=Не унывай, двигай вперед
TTITLE2=Догоняй
TTITLE3=В бытие
TTITLE4=Сама любовь
TTITLE5=Все непросто
TTITLE6=Снова рад встрече
TTITLE7=Веселое настроение
TTITLE8=Что могу
TTITLE9=Так хочу
TTITLE10=Не все гладко
TTITLE11=Жажда любви
TTITLE12=Благодарение
EXTD=YEAR: 2005
EXTT0=
EXTT1=
EXTT2=
EXTT3=
EXTT4=
EXTT5=
EXTT6=
EXTT7=
EXTT8=
EXTT9=
EXTT10=
EXTT11=
EXTT12=
PLAYORDER=
